<svg xmlns="http://www.w3.org/2000/svg" fill="none" viewBox="0 0 128 56">
    <path fill="#fff"
          d="M70.608 31.018a14.642 14.642 0 01-4.374-3.773 2.767 2.767 0 00-1.076-.841 2.574 2.574 0 00-1.401-.216c-.144.019-.582.154-1.314.405-1.41.485-2.847.878-4.31 1.178a1.007 1.007 0 01-.455-.004 3.22 3.22 0 01-.523-.181c-.077-.035-.126-.079-.146-.131-.026-.07-.006-.127.061-.173a.294.294 0 01.16-.042 69.221 69.221 0 001.92-.1.11.11 0 00.043-.01c.046-.024.044-.043-.005-.057a31.074 31.074 0 01-4.011-1.438.109.109 0 01-.034-.022.094.094 0 01-.022-.032c-.075-.186-.004-.273.214-.263 1.098.054 1.794.085 2.09.092.006 0 .013 0 .019-.003a.044.044 0 00.016-.009.029.029 0 00.009-.013.02.02 0 000-.014c-.007-.017-.026-.031-.055-.042a25.572 25.572 0 01-3.895-1.838.44.44 0 01-.139-.11c-.05-.072-.035-.14.046-.204a.19.19 0 01.139-.04l1.848.195c.15.016.159-.012.025-.084a33.767 33.767 0 01-5.586-3.748.125.125 0 01-.043-.066c-.03-.126.02-.204.148-.232a.117.117 0 01.077.011c5.006 2.6 10.306 3.95 15.898 4.052.306.006.587.046.843.122.26.076.508.204.746.383.51.382.86.89 1.047 1.523l.083.278a13.747 13.747 0 001.33 2.898c.02.032.022.033.006.001a15.628 15.628 0 01-1.106-2.923c-.167-.627-.294-1.025-.38-1.195-.446-.889-1.22-1.378-2.32-1.47a36.863 36.863 0 01-3.973-.569.771.771 0 01-.42-.215l-.107-.11a36.34 36.34 0 01-2.445-2.478.12.12 0 01-.032-.071c-.009-.146.049-.212.173-.197a.627.627 0 01.202.077c.567.303 1.13.595 1.688.876.17.086.19.06.058-.079a29.983 29.983 0 01-2.75-3.34.126.126 0 01-.024-.074c.002-.105.048-.164.14-.177.052-.008.113.01.182.054.545.346 1.092.672 1.641.979.052.028.06.02.024-.028a35.493 35.493 0 01-3.522-5.783c-.034-.07-.044-.131-.029-.183.027-.095.093-.13.198-.106.053.012.1.042.133.085 3.339 4.296 7.382 7.658 12.131 10.085.621.317.982.515 1.083.593.335.259.591.596.769 1.01.222.52.291 1.058.208 1.612l-.055.363a14.335 14.335 0 00.317 5.088c.03.123.086.236.165.34a.658.658 0 00.293.213c.34.132.588.06.74-.217.077-.137.12-.354.128-.652.035-1.163.01-2.325-.075-3.486-.041-.552-.08-1.103-.118-1.655-.02-.3.042-.656.187-1.065.316-.888.864-1.523 1.642-1.904a3.22 3.22 0 011.603-.328 3.388 3.388 0 011.738.582c.17.113.35.22.542.321.445.235.817.55 1.119.945.136.178.298.462.486.852.142.296.282.592.419.89.146.315.262.64.348.976.031.12 0 .138-.091.056a22.177 22.177 0 00-1.087-.902 1.17 1.17 0 00-.37-.186 3.405 3.405 0 01-1.689-1.168c-.2-.257-.347-.42-.439-.488a1.412 1.412 0 00-.627-.272c-.662-.103-1.204.09-1.624.58a1.519 1.519 0 00-.364 1.152c.113 1.47.236 2.939.368 4.407.217 2.423-.273 4.65-1.472 6.683a9.712 9.712 0 01-.958 1.349c-1.443 1.698-3.263 2.78-5.459 3.242a9.51 9.51 0 01-1.64.201 10.95 10.95 0 01-3.146-.357c-.041-.01-.043-.026-.006-.046.937-.525 1.61-1.239 2.016-2.14.029-.065.152-.44.37-1.122a8.836 8.836 0 01.754-1.721c.039-.068.023-.084-.046-.048-.293.152-.59.295-.89.43a.566.566 0 01-.215.064c-.083-.002-.133-.046-.15-.134a.319.319 0 01.024-.176c.116-.307.227-.609.332-.904.023-.067.004-.083-.058-.05-.596.313-1.202.603-1.819.871-.09.04-.16.054-.21.043-.073-.015-.112-.066-.117-.153a.395.395 0 01.04-.171c.135-.31.247-.628.336-.954.007-.027-.002-.035-.028-.024-1.009.407-2.035.762-3.08 1.067-.088.025-.158.027-.209.005-.074-.033-.099-.094-.073-.183a.29.29 0 01.102-.139c.377-.307.756-.61 1.138-.911.088-.07.077-.092-.032-.07-1.264.27-2.566.477-3.905.62a.165.165 0 01-.108-.024c-.11-.07-.132-.147-.067-.233a.484.484 0 01.16-.116c.555-.287 1.106-.58 1.654-.88.048-.026.053-.046.017-.06a.08.08 0 00-.044-.004 35.936 35.936 0 01-4.099.38c-.092.004-.162-.016-.21-.059-.074-.067-.074-.14 0-.217a.48.48 0 01.163-.096c.64-.253 1.262-.514 1.866-.783.095-.043.09-.061-.014-.056a36.28 36.28 0 01-4.22-.012.626.626 0 01-.242-.052c-.117-.06-.13-.144-.039-.248.04-.047.1-.083.181-.108a56.53 56.53 0 001.66-.553c.15-.053.146-.084-.013-.094a35.206 35.206 0 01-6.556-1.01c-.091-.024-.154-.058-.19-.104-.062-.082-.038-.161.073-.238a.13.13 0 01.078-.02c5.451.227 10.667-.723 15.647-2.85.604-.258 1.027-.404 1.27-.439.699-.1 1.35.077 1.954.53.18.135.36.3.538.497l.298.325a15.118 15.118 0 003.313 2.56c.348.203.639.346.871.432.027.01.028.008.003-.007z"></path>
</svg>